<svg width="18" height="18" viewBox="0 0 18 18" fill="none" xmlns="http://www.w3.org/2000/svg">
<path d="M6.54541 8.18185L8.99995 10.6364L17.1818 2.45459" stroke="white" stroke-width="1.5"/>
<path d="M16.7917 9C16.7917 13.3032 13.3032 16.7917 8.99999 16.7917C4.69675 16.7917 1.20829 13.3032 1.20829 8.99999C1.20829 4.69675 4.69675 1.20829 8.99999 1.20829C10.3609 1.20829 11.6404 1.55722 12.7538 2.17049L13.3351 1.11287C12.9737 0.91424 12.6008 0.741579 12.2191 0.595388C10.7745 0.0420991 9.20464 -0.132019 7.66127 0.100136C5.71012 0.39363 3.90948 1.32019 2.53646 2.73721C1.16345 4.15424 0.294145 5.98321 0.0623383 7.94265C-0.169469 9.90209 0.249066 11.8834 1.25353 13.5817C2.258 15.28 3.79273 16.6011 5.62154 17.3418C7.45034 18.0825 9.47188 18.2016 11.375 17.6809C13.2782 17.1603 14.9575 16.0286 16.1545 14.4601C17.1014 13.2194 17.705 11.7597 17.9159 10.2273C17.9717 9.82236 18 9.41238 18 9H16.7917Z" fill="white"/>
</svg>
